# xmcd CD database file
#
# Track frame offsets:
#	150
#	14450
#	33400
#	44500
#	67825
#	85675
#	100775
#	116050
#	131550
#	147675
#	161325
#	178325
#	192925
#	209650
#	222850
#	236000
#	246550
#	272625
#	286150
#	308425
#
# Disc length: 4333 seconds
#
# Revision: 0
# Processed by: cddbd v1.5.1PL0 Copyright (c) Steve Scherf et al.
# Submitted via: CDex 1.51
#
DISCID=2a10eb14
DTITLE=Bob Wilber - Kenny Davern - Soprano Summit
DYEAR=1900
DGENRE=Jazz
TTITLE0=Swing Parade
TTITLE1=Egyptian Fantasy
TTITLE2=Oh, Sister Ain't That Hot
TTITLE3=Stealin' Away
TTITLE4=Penny Rag
TTITLE5=Frog-I-More Rag
TTITLE6=Solace I
TTITLE7=Tango a la Caprice
TTITLE8=If You Went Away
TTITLE9=Lincoln Garden Stomp
TTITLE10=Solace II
TTITLE11=Sidewalk Blues
TTITLE12=Creole Nights
TTITLE13=Rialto Ripples
TTITLE14=Sun Flower Slow Drag
TTITLE15=The Fish Man
TTITLE16=The Mooche
TTITLE17=Please Clarify
TTITLE18=Song Of Songs
TTITLE19=Meet Me Tonight In Dreamland
EXTD=
EXTT0=
EXTT1=
EXTT2=
EXTT3=
EXTT4=
EXTT5=
EXTT6=
EXTT7=
EXTT8=
EXTT9=
EXTT10=
EXTT11=
EXTT12=
EXTT13=
EXTT14=
EXTT15=
EXTT16=
EXTT17=
EXTT18=
EXTT19=
PLAYORDER=
